<svg xmlns="http://www.w3.org/2000/svg" width="1600" height="560" viewBox="0 0 1600 560" role="img" aria-label="AIRDOX lettering study Spray Skeleton Raw">
  
  <defs>
    <filter id="paperNoise" x="-20%" y="-20%" width="140%" height="140%">
      <feTurbulence type="fractalNoise" baseFrequency="0.95" numOctaves="2" seed="12"/>
      <feColorMatrix type="saturate" values="0"/>
      <feComponentTransfer>
        <feFuncA type="table" tableValues="0 0.18"/>
      </feComponentTransfer>
      <feBlend mode="screen" in2="SourceGraphic"/>
    </filter>
    <filter id="rough" x="-20%" y="-20%" width="140%" height="140%">
      <feTurbulence type="fractalNoise" baseFrequency="0.035" numOctaves="3" seed="7" result="noise"/>
      <feDisplacementMap in="SourceGraphic" in2="noise" scale="12"/>
    </filter>
    <filter id="glow" x="-25%" y="-25%" width="150%" height="150%">
      <feGaussianBlur stdDeviation="13" result="blur"/>
      <feMerge>
        <feMergeNode in="blur"/>
        <feMergeNode in="SourceGraphic"/>
      </feMerge>
    </filter>
    <linearGradient id="chrome" x1="0" x2="0" y1="0" y2="1">
      <stop offset="0" stop-color="#ffffff"/>
      <stop offset="0.22" stop-color="#00f0ff"/>
      <stop offset="0.48" stop-color="#10131b"/>
      <stop offset="0.68" stop-color="#ff00aa"/>
      <stop offset="1" stop-color="#f5f8ff"/>
    </linearGradient>
    <pattern id="dotgrid" width="26" height="26" patternUnits="userSpaceOnUse">
      <circle cx="3" cy="3" r="2" fill="#00f0ff" opacity="0.23"/>
    </pattern>
  </defs>
  <rect width="100%" height="100%" fill="#050608"/>
  <rect width="100%" height="100%" fill="url(#dotgrid)" opacity="0.25"/>
  <g font-family="Inter, Arial, sans-serif" letter-spacing="0">
    <text x="52" y="54" fill="#9aa6b2" font-size="21" font-weight="800">06 / Spray Skeleton Raw</text>
    <text x="52" y="526" fill="#9aa6b2" font-size="20" font-weight="700">Wireframe outline, overspray field, meant for Photoshop cleanup and mask work.</text>
  </g>
  
        <circle cx="70" cy="42" r="3" fill="#f5f8ff" opacity="0.077"/>
<circle cx="267" cy="131" r="20" fill="#f5f8ff" opacity="0.10144444444444443"/>
<circle cx="464" cy="220" r="19" fill="#f5f8ff" opacity="0.12588888888888888"/>
<circle cx="661" cy="309" r="18" fill="#f5f8ff" opacity="0.15033333333333335"/>
<circle cx="858" cy="398" r="17" fill="#f5f8ff" opacity="0.17477777777777778"/>
<circle cx="1055" cy="487" r="16" fill="#f5f8ff" opacity="0.19922222222222222"/>
<circle cx="1252" cy="106" r="15" fill="#f5f8ff" opacity="0.077"/>
<circle cx="1449" cy="195" r="14" fill="#f5f8ff" opacity="0.10144444444444443"/>
<circle cx="176" cy="284" r="13" fill="#f5f8ff" opacity="0.12588888888888888"/>
<circle cx="373" cy="373" r="12" fill="#f5f8ff" opacity="0.15033333333333335"/>
<circle cx="570" cy="462" r="11" fill="#f5f8ff" opacity="0.17477777777777778"/>
<circle cx="767" cy="81" r="10" fill="#f5f8ff" opacity="0.19922222222222222"/>
<circle cx="964" cy="170" r="9" fill="#f5f8ff" opacity="0.077"/>
<circle cx="1161" cy="259" r="8" fill="#f5f8ff" opacity="0.10144444444444443"/>
<circle cx="1358" cy="348" r="7" fill="#f5f8ff" opacity="0.12588888888888888"/>
<circle cx="85" cy="437" r="6" fill="#f5f8ff" opacity="0.15033333333333335"/>
<circle cx="282" cy="56" r="5" fill="#f5f8ff" opacity="0.17477777777777778"/>
<circle cx="479" cy="145" r="4" fill="#f5f8ff" opacity="0.19922222222222222"/>
<circle cx="676" cy="234" r="3" fill="#f5f8ff" opacity="0.077"/>
<circle cx="873" cy="323" r="20" fill="#f5f8ff" opacity="0.10144444444444443"/>
<circle cx="1070" cy="412" r="19" fill="#f5f8ff" opacity="0.12588888888888888"/>
<circle cx="1267" cy="501" r="18" fill="#f5f8ff" opacity="0.15033333333333335"/>
<circle cx="1464" cy="120" r="17" fill="#f5f8ff" opacity="0.17477777777777778"/>
<circle cx="191" cy="209" r="16" fill="#f5f8ff" opacity="0.19922222222222222"/>
<circle cx="388" cy="298" r="15" fill="#f5f8ff" opacity="0.077"/>
<circle cx="585" cy="387" r="14" fill="#f5f8ff" opacity="0.10144444444444443"/>
<circle cx="782" cy="476" r="13" fill="#f5f8ff" opacity="0.12588888888888888"/>
<circle cx="979" cy="95" r="12" fill="#f5f8ff" opacity="0.15033333333333335"/>
<circle cx="1176" cy="184" r="11" fill="#f5f8ff" opacity="0.17477777777777778"/>
<circle cx="1373" cy="273" r="10" fill="#f5f8ff" opacity="0.19922222222222222"/>
<circle cx="100" cy="362" r="9" fill="#f5f8ff" opacity="0.077"/>
<circle cx="297" cy="451" r="8" fill="#f5f8ff" opacity="0.10144444444444443"/>
<circle cx="494" cy="70" r="7" fill="#f5f8ff" opacity="0.12588888888888888"/>
<circle cx="691" cy="159" r="6" fill="#f5f8ff" opacity="0.15033333333333335"/>
<circle cx="888" cy="248" r="5" fill="#f5f8ff" opacity="0.17477777777777778"/>
<circle cx="1085" cy="337" r="4" fill="#f5f8ff" opacity="0.19922222222222222"/>
<circle cx="1282" cy="426" r="3" fill="#f5f8ff" opacity="0.077"/>
<circle cx="1479" cy="45" r="20" fill="#f5f8ff" opacity="0.10144444444444443"/>
<circle cx="206" cy="134" r="19" fill="#f5f8ff" opacity="0.12588888888888888"/>
<circle cx="403" cy="223" r="18" fill="#f5f8ff" opacity="0.15033333333333335"/>
<circle cx="600" cy="312" r="17" fill="#f5f8ff" opacity="0.17477777777777778"/>
<circle cx="797" cy="401" r="16" fill="#f5f8ff" opacity="0.19922222222222222"/>
<circle cx="994" cy="490" r="15" fill="#f5f8ff" opacity="0.077"/>
<circle cx="1191" cy="109" r="14" fill="#f5f8ff" opacity="0.10144444444444443"/>
<circle cx="1388" cy="198" r="13" fill="#f5f8ff" opacity="0.12588888888888888"/>
<circle cx="115" cy="287" r="12" fill="#f5f8ff" opacity="0.15033333333333335"/>
<circle cx="312" cy="376" r="11" fill="#f5f8ff" opacity="0.17477777777777778"/>
<circle cx="509" cy="465" r="10" fill="#f5f8ff" opacity="0.19922222222222222"/>
<circle cx="706" cy="84" r="9" fill="#f5f8ff" opacity="0.077"/>
<circle cx="903" cy="173" r="8" fill="#f5f8ff" opacity="0.10144444444444443"/>
<circle cx="1100" cy="262" r="7" fill="#f5f8ff" opacity="0.12588888888888888"/>
<circle cx="1297" cy="351" r="6" fill="#f5f8ff" opacity="0.15033333333333335"/>
<circle cx="1494" cy="440" r="5" fill="#f5f8ff" opacity="0.17477777777777778"/>
<circle cx="221" cy="59" r="4" fill="#f5f8ff" opacity="0.19922222222222222"/>
<circle cx="418" cy="148" r="3" fill="#f5f8ff" opacity="0.077"/>
<circle cx="615" cy="237" r="20" fill="#f5f8ff" opacity="0.10144444444444443"/>
<circle cx="812" cy="326" r="19" fill="#f5f8ff" opacity="0.12588888888888888"/>
<circle cx="1009" cy="415" r="18" fill="#f5f8ff" opacity="0.15033333333333335"/>
<circle cx="1206" cy="504" r="17" fill="#f5f8ff" opacity="0.17477777777777778"/>
<circle cx="1403" cy="123" r="16" fill="#f5f8ff" opacity="0.19922222222222222"/>
<circle cx="130" cy="212" r="15" fill="#f5f8ff" opacity="0.077"/>
<circle cx="327" cy="301" r="14" fill="#f5f8ff" opacity="0.10144444444444443"/>
<circle cx="524" cy="390" r="13" fill="#f5f8ff" opacity="0.12588888888888888"/>
<circle cx="721" cy="479" r="12" fill="#f5f8ff" opacity="0.15033333333333335"/>
<circle cx="918" cy="98" r="11" fill="#f5f8ff" opacity="0.17477777777777778"/>
<circle cx="1115" cy="187" r="10" fill="#f5f8ff" opacity="0.19922222222222222"/>
<circle cx="1312" cy="276" r="9" fill="#f5f8ff" opacity="0.077"/>
<circle cx="1509" cy="365" r="8" fill="#f5f8ff" opacity="0.10144444444444443"/>
<circle cx="236" cy="454" r="7" fill="#f5f8ff" opacity="0.12588888888888888"/>
<circle cx="433" cy="73" r="6" fill="#f5f8ff" opacity="0.15033333333333335"/>
<circle cx="630" cy="162" r="5" fill="#f5f8ff" opacity="0.17477777777777778"/>
<circle cx="827" cy="251" r="4" fill="#f5f8ff" opacity="0.19922222222222222"/>
<circle cx="1024" cy="340" r="3" fill="#f5f8ff" opacity="0.077"/>
<circle cx="1221" cy="429" r="20" fill="#f5f8ff" opacity="0.10144444444444443"/>
<circle cx="1418" cy="48" r="19" fill="#f5f8ff" opacity="0.12588888888888888"/>
<circle cx="145" cy="137" r="18" fill="#f5f8ff" opacity="0.15033333333333335"/>
<circle cx="342" cy="226" r="17" fill="#f5f8ff" opacity="0.17477777777777778"/>
<circle cx="539" cy="315" r="16" fill="#f5f8ff" opacity="0.19922222222222222"/>
<circle cx="736" cy="404" r="15" fill="#f5f8ff" opacity="0.077"/>
<circle cx="933" cy="493" r="14" fill="#f5f8ff" opacity="0.10144444444444443"/>
<circle cx="1130" cy="112" r="13" fill="#f5f8ff" opacity="0.12588888888888888"/>
<circle cx="1327" cy="201" r="12" fill="#f5f8ff" opacity="0.15033333333333335"/>
<circle cx="1524" cy="290" r="11" fill="#f5f8ff" opacity="0.17477777777777778"/>
<circle cx="251" cy="379" r="10" fill="#f5f8ff" opacity="0.19922222222222222"/>
<circle cx="448" cy="468" r="9" fill="#f5f8ff" opacity="0.077"/>
<circle cx="645" cy="87" r="8" fill="#f5f8ff" opacity="0.10144444444444443"/>
<circle cx="842" cy="176" r="7" fill="#f5f8ff" opacity="0.12588888888888888"/>
<circle cx="1039" cy="265" r="6" fill="#f5f8ff" opacity="0.15033333333333335"/>
<circle cx="1236" cy="354" r="5" fill="#f5f8ff" opacity="0.17477777777777778"/>
<circle cx="1433" cy="443" r="4" fill="#f5f8ff" opacity="0.19922222222222222"/>
<circle cx="160" cy="62" r="3" fill="#f5f8ff" opacity="0.077"/>
<circle cx="357" cy="151" r="20" fill="#f5f8ff" opacity="0.10144444444444443"/>
<circle cx="554" cy="240" r="19" fill="#f5f8ff" opacity="0.12588888888888888"/>
<circle cx="751" cy="329" r="18" fill="#f5f8ff" opacity="0.15033333333333335"/>
<circle cx="948" cy="418" r="17" fill="#f5f8ff" opacity="0.17477777777777778"/>
<circle cx="1145" cy="507" r="16" fill="#f5f8ff" opacity="0.19922222222222222"/>
<circle cx="1342" cy="126" r="15" fill="#f5f8ff" opacity="0.077"/>
<circle cx="1539" cy="215" r="14" fill="#f5f8ff" opacity="0.10144444444444443"/>
<circle cx="266" cy="304" r="13" fill="#f5f8ff" opacity="0.12588888888888888"/>
<circle cx="463" cy="393" r="12" fill="#f5f8ff" opacity="0.15033333333333335"/>
<circle cx="660" cy="482" r="11" fill="#f5f8ff" opacity="0.17477777777777778"/>
<circle cx="857" cy="101" r="10" fill="#f5f8ff" opacity="0.19922222222222222"/>
<circle cx="1054" cy="190" r="9" fill="#f5f8ff" opacity="0.077"/>
<circle cx="1251" cy="279" r="8" fill="#f5f8ff" opacity="0.10144444444444443"/>
<circle cx="1448" cy="368" r="7" fill="#f5f8ff" opacity="0.12588888888888888"/>
<circle cx="175" cy="457" r="6" fill="#f5f8ff" opacity="0.15033333333333335"/>
<circle cx="372" cy="76" r="5" fill="#f5f8ff" opacity="0.17477777777777778"/>
<circle cx="569" cy="165" r="4" fill="#f5f8ff" opacity="0.19922222222222222"/>
<circle cx="766" cy="254" r="3" fill="#f5f8ff" opacity="0.077"/>
<circle cx="963" cy="343" r="20" fill="#f5f8ff" opacity="0.10144444444444443"/>
<circle cx="1160" cy="432" r="19" fill="#f5f8ff" opacity="0.12588888888888888"/>
<circle cx="1357" cy="51" r="18" fill="#f5f8ff" opacity="0.15033333333333335"/>
<circle cx="84" cy="140" r="17" fill="#f5f8ff" opacity="0.17477777777777778"/>
<circle cx="281" cy="229" r="16" fill="#f5f8ff" opacity="0.19922222222222222"/>
<circle cx="478" cy="318" r="15" fill="#f5f8ff" opacity="0.077"/>
<circle cx="675" cy="407" r="14" fill="#f5f8ff" opacity="0.10144444444444443"/>
<circle cx="872" cy="496" r="13" fill="#f5f8ff" opacity="0.12588888888888888"/>
<circle cx="1069" cy="115" r="12" fill="#f5f8ff" opacity="0.15033333333333335"/>
<circle cx="1266" cy="204" r="11" fill="#f5f8ff" opacity="0.17477777777777778"/>
<circle cx="1463" cy="293" r="10" fill="#f5f8ff" opacity="0.19922222222222222"/>
        <circle cx="70" cy="42" r="3" fill="#ff00aa" opacity="0.06999999999999999"/>
<circle cx="267" cy="131" r="20" fill="#ff00aa" opacity="0.09222222222222222"/>
<circle cx="464" cy="220" r="19" fill="#ff00aa" opacity="0.11444444444444445"/>
<circle cx="661" cy="309" r="18" fill="#ff00aa" opacity="0.1366666666666667"/>
<circle cx="858" cy="398" r="17" fill="#ff00aa" opacity="0.15888888888888889"/>
<circle cx="1055" cy="487" r="16" fill="#ff00aa" opacity="0.1811111111111111"/>
<circle cx="1252" cy="106" r="15" fill="#ff00aa" opacity="0.06999999999999999"/>
<circle cx="1449" cy="195" r="14" fill="#ff00aa" opacity="0.09222222222222222"/>
<circle cx="176" cy="284" r="13" fill="#ff00aa" opacity="0.11444444444444445"/>
<circle cx="373" cy="373" r="12" fill="#ff00aa" opacity="0.1366666666666667"/>
<circle cx="570" cy="462" r="11" fill="#ff00aa" opacity="0.15888888888888889"/>
<circle cx="767" cy="81" r="10" fill="#ff00aa" opacity="0.1811111111111111"/>
<circle cx="964" cy="170" r="9" fill="#ff00aa" opacity="0.06999999999999999"/>
<circle cx="1161" cy="259" r="8" fill="#ff00aa" opacity="0.09222222222222222"/>
<circle cx="1358" cy="348" r="7" fill="#ff00aa" opacity="0.11444444444444445"/>
<circle cx="85" cy="437" r="6" fill="#ff00aa" opacity="0.1366666666666667"/>
<circle cx="282" cy="56" r="5" fill="#ff00aa" opacity="0.15888888888888889"/>
<circle cx="479" cy="145" r="4" fill="#ff00aa" opacity="0.1811111111111111"/>
<circle cx="676" cy="234" r="3" fill="#ff00aa" opacity="0.06999999999999999"/>
<circle cx="873" cy="323" r="20" fill="#ff00aa" opacity="0.09222222222222222"/>
<circle cx="1070" cy="412" r="19" fill="#ff00aa" opacity="0.11444444444444445"/>
<circle cx="1267" cy="501" r="18" fill="#ff00aa" opacity="0.1366666666666667"/>
<circle cx="1464" cy="120" r="17" fill="#ff00aa" opacity="0.15888888888888889"/>
<circle cx="191" cy="209" r="16" fill="#ff00aa" opacity="0.1811111111111111"/>
<circle cx="388" cy="298" r="15" fill="#ff00aa" opacity="0.06999999999999999"/>
<circle cx="585" cy="387" r="14" fill="#ff00aa" opacity="0.09222222222222222"/>
<circle cx="782" cy="476" r="13" fill="#ff00aa" opacity="0.11444444444444445"/>
<circle cx="979" cy="95" r="12" fill="#ff00aa" opacity="0.1366666666666667"/>
<circle cx="1176" cy="184" r="11" fill="#ff00aa" opacity="0.15888888888888889"/>
<circle cx="1373" cy="273" r="10" fill="#ff00aa" opacity="0.1811111111111111"/>
<circle cx="100" cy="362" r="9" fill="#ff00aa" opacity="0.06999999999999999"/>
<circle cx="297" cy="451" r="8" fill="#ff00aa" opacity="0.09222222222222222"/>
<circle cx="494" cy="70" r="7" fill="#ff00aa" opacity="0.11444444444444445"/>
<circle cx="691" cy="159" r="6" fill="#ff00aa" opacity="0.1366666666666667"/>
<circle cx="888" cy="248" r="5" fill="#ff00aa" opacity="0.15888888888888889"/>
<circle cx="1085" cy="337" r="4" fill="#ff00aa" opacity="0.1811111111111111"/>
<circle cx="1282" cy="426" r="3" fill="#ff00aa" opacity="0.06999999999999999"/>
<circle cx="1479" cy="45" r="20" fill="#ff00aa" opacity="0.09222222222222222"/>
<circle cx="206" cy="134" r="19" fill="#ff00aa" opacity="0.11444444444444445"/>
<circle cx="403" cy="223" r="18" fill="#ff00aa" opacity="0.1366666666666667"/>
<circle cx="600" cy="312" r="17" fill="#ff00aa" opacity="0.15888888888888889"/>
<circle cx="797" cy="401" r="16" fill="#ff00aa" opacity="0.1811111111111111"/>
<circle cx="994" cy="490" r="15" fill="#ff00aa" opacity="0.06999999999999999"/>
<circle cx="1191" cy="109" r="14" fill="#ff00aa" opacity="0.09222222222222222"/>
<circle cx="1388" cy="198" r="13" fill="#ff00aa" opacity="0.11444444444444445"/>
<circle cx="115" cy="287" r="12" fill="#ff00aa" opacity="0.1366666666666667"/>
<circle cx="312" cy="376" r="11" fill="#ff00aa" opacity="0.15888888888888889"/>
<circle cx="509" cy="465" r="10" fill="#ff00aa" opacity="0.1811111111111111"/>
<circle cx="706" cy="84" r="9" fill="#ff00aa" opacity="0.06999999999999999"/>
<circle cx="903" cy="173" r="8" fill="#ff00aa" opacity="0.09222222222222222"/>
<circle cx="1100" cy="262" r="7" fill="#ff00aa" opacity="0.11444444444444445"/>
<circle cx="1297" cy="351" r="6" fill="#ff00aa" opacity="0.1366666666666667"/>
<circle cx="1494" cy="440" r="5" fill="#ff00aa" opacity="0.15888888888888889"/>
<circle cx="221" cy="59" r="4" fill="#ff00aa" opacity="0.1811111111111111"/>
<circle cx="418" cy="148" r="3" fill="#ff00aa" opacity="0.06999999999999999"/>
<circle cx="615" cy="237" r="20" fill="#ff00aa" opacity="0.09222222222222222"/>
<circle cx="812" cy="326" r="19" fill="#ff00aa" opacity="0.11444444444444445"/>
<circle cx="1009" cy="415" r="18" fill="#ff00aa" opacity="0.1366666666666667"/>
<circle cx="1206" cy="504" r="17" fill="#ff00aa" opacity="0.15888888888888889"/>
<circle cx="1403" cy="123" r="16" fill="#ff00aa" opacity="0.1811111111111111"/>
<circle cx="130" cy="212" r="15" fill="#ff00aa" opacity="0.06999999999999999"/>
<circle cx="327" cy="301" r="14" fill="#ff00aa" opacity="0.09222222222222222"/>
<circle cx="524" cy="390" r="13" fill="#ff00aa" opacity="0.11444444444444445"/>
<circle cx="721" cy="479" r="12" fill="#ff00aa" opacity="0.1366666666666667"/>
<circle cx="918" cy="98" r="11" fill="#ff00aa" opacity="0.15888888888888889"/>
<circle cx="1115" cy="187" r="10" fill="#ff00aa" opacity="0.1811111111111111"/>
<circle cx="1312" cy="276" r="9" fill="#ff00aa" opacity="0.06999999999999999"/>
<circle cx="1509" cy="365" r="8" fill="#ff00aa" opacity="0.09222222222222222"/>
<circle cx="236" cy="454" r="7" fill="#ff00aa" opacity="0.11444444444444445"/>
<circle cx="433" cy="73" r="6" fill="#ff00aa" opacity="0.1366666666666667"/>
<circle cx="630" cy="162" r="5" fill="#ff00aa" opacity="0.15888888888888889"/>
<circle cx="827" cy="251" r="4" fill="#ff00aa" opacity="0.1811111111111111"/>
<circle cx="1024" cy="340" r="3" fill="#ff00aa" opacity="0.06999999999999999"/>
<circle cx="1221" cy="429" r="20" fill="#ff00aa" opacity="0.09222222222222222"/>
<circle cx="1418" cy="48" r="19" fill="#ff00aa" opacity="0.11444444444444445"/>
<circle cx="145" cy="137" r="18" fill="#ff00aa" opacity="0.1366666666666667"/>
<circle cx="342" cy="226" r="17" fill="#ff00aa" opacity="0.15888888888888889"/>
<circle cx="539" cy="315" r="16" fill="#ff00aa" opacity="0.1811111111111111"/>
<circle cx="736" cy="404" r="15" fill="#ff00aa" opacity="0.06999999999999999"/>
<circle cx="933" cy="493" r="14" fill="#ff00aa" opacity="0.09222222222222222"/>
        
  <g transform="translate(82 92) rotate(2 760 230)" filter="url(#rough)">
    
      <g transform="translate(0 0) scale(1.06)">
        <path d="M20 370 L96 35 L183 35 L265 370 L194 370 L178 304 L84 304 L66 370 Z M101 238 L160 238 L130 108 Z" fill="rgba(5,6,8,0.42)" stroke="#f5f8ff" stroke-width="26" stroke-linejoin="round" fill-rule="evenodd"/>
      </g>
    
      <g transform="translate(250 0) scale(1.02)">
        <path d="M34 35 L174 35 L162 96 L122 96 L105 310 L154 310 L140 370 L0 370 L12 310 L52 310 L70 96 L20 96 Z" fill="rgba(5,6,8,0.42)" stroke="#f5f8ff" stroke-width="26" stroke-linejoin="round" fill-rule="evenodd"/>
      </g>
    
      <g transform="translate(390 0) scale(1.02)">
        <path d="M18 370 L54 35 L184 35 C255 35 286 78 274 137 C265 184 234 209 196 220 L258 370 L179 370 L128 234 L94 234 L79 370 Z M106 96 L96 178 L162 178 C196 178 213 162 217 136 C222 108 207 96 174 96 Z" fill="rgba(5,6,8,0.42)" stroke="#f5f8ff" stroke-width="26" stroke-linejoin="round" fill-rule="evenodd"/>
      </g>
    
      <g transform="translate(650 0) scale(1.02)">
        <path d="M20 370 L56 35 L172 35 C272 35 328 102 318 198 C307 302 236 370 134 370 Z M109 101 L84 304 L139 304 C198 304 241 264 249 197 C257 133 223 101 166 101 Z" fill="rgba(5,6,8,0.42)" stroke="#f5f8ff" stroke-width="26" stroke-linejoin="round" fill-rule="evenodd"/>
      </g>
    
      <g transform="translate(920 0) scale(1)">
        <path d="M28 200 C42 82 116 25 221 35 C323 45 370 116 356 226 C342 330 270 385 169 373 C68 362 15 299 28 200 Z M99 205 C91 269 124 307 178 313 C234 319 275 284 284 221 C292 158 261 112 212 107 C154 101 107 139 99 205 Z" fill="rgba(5,6,8,0.42)" stroke="#f5f8ff" stroke-width="26" stroke-linejoin="round" fill-rule="evenodd"/>
      </g>
    
      <g transform="translate(1215 0) scale(1.04)">
        <path d="M32 35 L116 35 L181 142 L259 35 L338 35 L220 188 L324 370 L235 370 L168 248 L76 370 L-2 370 L126 203 Z" fill="rgba(5,6,8,0.42)" stroke="#f5f8ff" stroke-width="26" stroke-linejoin="round" fill-rule="evenodd"/>
      </g>
    
    
  </g>
        
  <g transform="translate(82 92) rotate(2 760 230) translate(8 -8)" >
    
      <g transform="translate(0 0) scale(1.06)">
        <path d="M20 370 L96 35 L183 35 L265 370 L194 370 L178 304 L84 304 L66 370 Z M101 238 L160 238 L130 108 Z" fill="none" stroke="#00f0ff" stroke-width="6" stroke-linejoin="round" fill-rule="evenodd"/>
      </g>
    
      <g transform="translate(250 0) scale(1.02)">
        <path d="M34 35 L174 35 L162 96 L122 96 L105 310 L154 310 L140 370 L0 370 L12 310 L52 310 L70 96 L20 96 Z" fill="none" stroke="#00f0ff" stroke-width="6" stroke-linejoin="round" fill-rule="evenodd"/>
      </g>
    
      <g transform="translate(390 0) scale(1.02)">
        <path d="M18 370 L54 35 L184 35 C255 35 286 78 274 137 C265 184 234 209 196 220 L258 370 L179 370 L128 234 L94 234 L79 370 Z M106 96 L96 178 L162 178 C196 178 213 162 217 136 C222 108 207 96 174 96 Z" fill="none" stroke="#00f0ff" stroke-width="6" stroke-linejoin="round" fill-rule="evenodd"/>
      </g>
    
      <g transform="translate(650 0) scale(1.02)">
        <path d="M20 370 L56 35 L172 35 C272 35 328 102 318 198 C307 302 236 370 134 370 Z M109 101 L84 304 L139 304 C198 304 241 264 249 197 C257 133 223 101 166 101 Z" fill="none" stroke="#00f0ff" stroke-width="6" stroke-linejoin="round" fill-rule="evenodd"/>
      </g>
    
      <g transform="translate(920 0) scale(1)">
        <path d="M28 200 C42 82 116 25 221 35 C323 45 370 116 356 226 C342 330 270 385 169 373 C68 362 15 299 28 200 Z M99 205 C91 269 124 307 178 313 C234 319 275 284 284 221 C292 158 261 112 212 107 C154 101 107 139 99 205 Z" fill="none" stroke="#00f0ff" stroke-width="6" stroke-linejoin="round" fill-rule="evenodd"/>
      </g>
    
      <g transform="translate(1215 0) scale(1.04)">
        <path d="M32 35 L116 35 L181 142 L259 35 L338 35 L220 188 L324 370 L235 370 L168 248 L76 370 L-2 370 L126 203 Z" fill="none" stroke="#00f0ff" stroke-width="6" stroke-linejoin="round" fill-rule="evenodd"/>
      </g>
    
    
  </g>
        
  <g fill="#ff00aa" stroke="#02030a" stroke-width="12" stroke-linejoin="round">
    <polygon points="210,380 282,332 250,430" />
    <polygon points="520,68 624,42 582,124" />
    <polygon points="850,326 952,276 908,390" />
    <polygon points="1236,80 1322,42 1304,132" />
    <polygon points="1450,382 1532,330 1502,444" />
  </g>
</svg>