<svg xmlns="http://www.w3.org/2000/svg" width="1600" height="560" viewBox="0 0 1600 560" role="img" aria-label="AIRDOX lettering study X-Lock Block Assembly">
  
  <defs>
    <filter id="paperNoise" x="-20%" y="-20%" width="140%" height="140%">
      <feTurbulence type="fractalNoise" baseFrequency="0.95" numOctaves="2" seed="12"/>
      <feColorMatrix type="saturate" values="0"/>
      <feComponentTransfer>
        <feFuncA type="table" tableValues="0 0.18"/>
      </feComponentTransfer>
      <feBlend mode="screen" in2="SourceGraphic"/>
    </filter>
    <filter id="rough" x="-20%" y="-20%" width="140%" height="140%">
      <feTurbulence type="fractalNoise" baseFrequency="0.035" numOctaves="3" seed="7" result="noise"/>
      <feDisplacementMap in="SourceGraphic" in2="noise" scale="12"/>
    </filter>
    <filter id="glow" x="-25%" y="-25%" width="150%" height="150%">
      <feGaussianBlur stdDeviation="13" result="blur"/>
      <feMerge>
        <feMergeNode in="blur"/>
        <feMergeNode in="SourceGraphic"/>
      </feMerge>
    </filter>
    <linearGradient id="chrome" x1="0" x2="0" y1="0" y2="1">
      <stop offset="0" stop-color="#ffffff"/>
      <stop offset="0.22" stop-color="#00f0ff"/>
      <stop offset="0.48" stop-color="#10131b"/>
      <stop offset="0.68" stop-color="#ff00aa"/>
      <stop offset="1" stop-color="#f5f8ff"/>
    </linearGradient>
    <pattern id="dotgrid" width="26" height="26" patternUnits="userSpaceOnUse">
      <circle cx="3" cy="3" r="2" fill="#00f0ff" opacity="0.23"/>
    </pattern>
  </defs>
  <rect width="100%" height="100%" fill="#050608"/>
  <rect width="100%" height="100%" fill="url(#dotgrid)" opacity="0.25"/>
  <g font-family="Inter, Arial, sans-serif" letter-spacing="0">
    <text x="52" y="54" fill="#9aa6b2" font-size="21" font-weight="800">07 / X-Lock Block Assembly</text>
    <text x="52" y="526" fill="#9aa6b2" font-size="20" font-weight="700">Modular letters that can assemble on beat; X gets its own final lock.</text>
  </g>
  
        <g transform="translate(84 104)">
          
            <g transform="translate(0 0) scale(1.06)">
              <path d="M20 370 L96 35 L183 35 L265 370 L194 370 L178 304 L84 304 L66 370 Z M101 238 L160 238 L130 108 Z" fill="#f5f8ff" stroke="#02030a" stroke-width="18" stroke-linejoin="round" fill-rule="evenodd"/>
              <rect x="10" y="44" width="42" height="34" fill="#ff00aa" opacity="0.78"/><rect x="64" y="102" width="42" height="34" fill="#00f0ff" opacity="0.78"/><rect x="118" y="160" width="42" height="34" fill="#ff00aa" opacity="0.78"/><rect x="172" y="218" width="42" height="34" fill="#00f0ff" opacity="0.78"/><rect x="226" y="276" width="42" height="34" fill="#ff00aa" opacity="0.78"/>
            </g>
            <g transform="translate(250 0) scale(1.02)">
              <path d="M34 35 L174 35 L162 96 L122 96 L105 310 L154 310 L140 370 L0 370 L12 310 L52 310 L70 96 L20 96 Z" fill="#f5f8ff" stroke="#02030a" stroke-width="18" stroke-linejoin="round" fill-rule="evenodd"/>
              <rect x="10" y="102" width="42" height="34" fill="#ff00aa" opacity="0.78"/><rect x="64" y="160" width="42" height="34" fill="#00f0ff" opacity="0.78"/><rect x="118" y="218" width="42" height="34" fill="#ff00aa" opacity="0.78"/><rect x="172" y="276" width="42" height="34" fill="#00f0ff" opacity="0.78"/><rect x="226" y="44" width="42" height="34" fill="#ff00aa" opacity="0.78"/>
            </g>
            <g transform="translate(390 0) scale(1.02)">
              <path d="M18 370 L54 35 L184 35 C255 35 286 78 274 137 C265 184 234 209 196 220 L258 370 L179 370 L128 234 L94 234 L79 370 Z M106 96 L96 178 L162 178 C196 178 213 162 217 136 C222 108 207 96 174 96 Z" fill="#f5f8ff" stroke="#02030a" stroke-width="18" stroke-linejoin="round" fill-rule="evenodd"/>
              <rect x="10" y="160" width="42" height="34" fill="#ff00aa" opacity="0.78"/><rect x="64" y="218" width="42" height="34" fill="#00f0ff" opacity="0.78"/><rect x="118" y="276" width="42" height="34" fill="#ff00aa" opacity="0.78"/><rect x="172" y="44" width="42" height="34" fill="#00f0ff" opacity="0.78"/><rect x="226" y="102" width="42" height="34" fill="#ff00aa" opacity="0.78"/>
            </g>
            <g transform="translate(650 0) scale(1.02)">
              <path d="M20 370 L56 35 L172 35 C272 35 328 102 318 198 C307 302 236 370 134 370 Z M109 101 L84 304 L139 304 C198 304 241 264 249 197 C257 133 223 101 166 101 Z" fill="#f5f8ff" stroke="#02030a" stroke-width="18" stroke-linejoin="round" fill-rule="evenodd"/>
              <rect x="10" y="218" width="42" height="34" fill="#ff00aa" opacity="0.78"/><rect x="64" y="276" width="42" height="34" fill="#00f0ff" opacity="0.78"/><rect x="118" y="44" width="42" height="34" fill="#ff00aa" opacity="0.78"/><rect x="172" y="102" width="42" height="34" fill="#00f0ff" opacity="0.78"/><rect x="226" y="160" width="42" height="34" fill="#ff00aa" opacity="0.78"/>
            </g>
            <g transform="translate(920 0) scale(1)">
              <path d="M28 200 C42 82 116 25 221 35 C323 45 370 116 356 226 C342 330 270 385 169 373 C68 362 15 299 28 200 Z M99 205 C91 269 124 307 178 313 C234 319 275 284 284 221 C292 158 261 112 212 107 C154 101 107 139 99 205 Z" fill="#f5f8ff" stroke="#02030a" stroke-width="18" stroke-linejoin="round" fill-rule="evenodd"/>
              <rect x="10" y="276" width="42" height="34" fill="#ff00aa" opacity="0.78"/><rect x="64" y="44" width="42" height="34" fill="#00f0ff" opacity="0.78"/><rect x="118" y="102" width="42" height="34" fill="#ff00aa" opacity="0.78"/><rect x="172" y="160" width="42" height="34" fill="#00f0ff" opacity="0.78"/><rect x="226" y="218" width="42" height="34" fill="#ff00aa" opacity="0.78"/>
            </g>
            <g transform="translate(1215 0) scale(1.04)">
              <path d="M32 35 L116 35 L181 142 L259 35 L338 35 L220 188 L324 370 L235 370 L168 248 L76 370 L-2 370 L126 203 Z" fill="#f5f8ff" stroke="#02030a" stroke-width="18" stroke-linejoin="round" fill-rule="evenodd"/>
              <rect x="10" y="44" width="42" height="34" fill="#ff00aa" opacity="0.78"/><rect x="64" y="102" width="42" height="34" fill="#00f0ff" opacity="0.78"/><rect x="118" y="160" width="42" height="34" fill="#ff00aa" opacity="0.78"/><rect x="172" y="218" width="42" height="34" fill="#00f0ff" opacity="0.78"/><rect x="226" y="276" width="42" height="34" fill="#ff00aa" opacity="0.78"/>
            </g>
        </g>
        <rect x="1240" y="78" width="230" height="58" fill="#9adf6b" transform="rotate(6 1240 78)"/>
        <rect x="1280" y="150" width="180" height="20" fill="#f5f8ff" transform="rotate(-8 1280 150)"/>
        <rect x="105" y="450" width="1320" height="22" fill="#00f0ff" opacity="0.74"/>
        <rect x="105" y="476" width="1320" height="10" fill="#ff00aa" opacity="0.74"/>
</svg>