<svg xmlns="http://www.w3.org/2000/svg" width="1080" height="1080" viewBox="0 0 1080 1080" role="img" aria-label="AIRDOX NEW SET">
  <defs>
    <linearGradient id="stageWash" x1="0" x2="1" y1="0" y2="1">
      <stop offset="0" stop-color="#21133f" stop-opacity="0.95"/>
      <stop offset="0.45" stop-color="#0f141a" stop-opacity="0.96"/>
      <stop offset="1" stop-color="#061f25" stop-opacity="0.98"/>
    </linearGradient>
    <linearGradient id="edgeGlow" x1="0" x2="1" y1="0" y2="1">
      <stop offset="0" stop-color="#00f0ff" stop-opacity="0.95"/>
      <stop offset="0.42" stop-color="#ff2bd6" stop-opacity="0.86"/>
      <stop offset="1" stop-color="#9adf6b" stop-opacity="0.82"/>
    </linearGradient>
    <pattern id="signalGrid" width="54" height="54" patternUnits="userSpaceOnUse">
      <path d="M54 0H0V54" fill="none" stroke="#263241" stroke-width="1" opacity="0.55"/>
      <circle cx="0" cy="54" r="2.5" fill="#00f0ff" opacity="0.38"/>
    </pattern>
    <filter id="softGlow" x="-20%" y="-20%" width="140%" height="140%">
      <feGaussianBlur stdDeviation="18" result="blur"/>
      <feMerge>
        <feMergeNode in="blur"/>
        <feMergeNode in="SourceGraphic"/>
      </feMerge>
    </filter>
  </defs>
  <rect width="100%" height="100%" fill="#050608"/>
  <rect width="100%" height="100%" fill="url(#stageWash)" opacity="0.72"/>
  <rect width="100%" height="100%" fill="url(#signalGrid)" opacity="0.34"/>
  <rect x="28" y="28" width="1024" height="1024" fill="none" stroke="#263241" stroke-width="2"/>
  <path d="M62 250 L990 820" stroke="#ff2bd6" stroke-width="34" opacity="0.24" filter="url(#softGlow)"/>
  <path d="M104 375 L990 820" stroke="#00f0ff" stroke-width="10" opacity="0.68"/>
  <rect x="80" y="90" width="920" height="890" fill="#0f141a" opacity="0.68"/>
  <rect x="830" y="90" width="170" height="890" fill="#21133f" opacity="0.82"/>
  <path d="M80 106 H485" stroke="#00f0ff" stroke-width="10" filter="url(#softGlow)"/>
  <path d="M246 690 H834" stroke="#ff2bd6" stroke-width="4" opacity="0.86"/>
  <path d="M540 956 H1000" stroke="#9adf6b" stroke-width="8" opacity="0.9"/>
  <g opacity="0.78">
    <rect x="864" y="240" width="16" height="374" fill="#00f0ff"/>
    <rect x="892" y="310" width="16" height="267" fill="#ff2bd6"/>
    <rect x="920" y="200" width="16" height="427" fill="#9adf6b"/>
  </g>
  <g opacity="0.86" aria-label="audio reactive equalizer direction">
    <rect x="106" y="713" width="12" height="18" rx="0" fill="#00f0ff" opacity="0.52"/>
    <rect x="132" y="696" width="12" height="35" rx="0" fill="#ff2bd6" opacity="0.62"/>
    <rect x="158" y="679" width="12" height="52" rx="0" fill="#9adf6b" opacity="0.72"/>
    <rect x="184" y="662" width="12" height="69" rx="0" fill="#00f0ff" opacity="0.8200000000000001"/>
    <rect x="210" y="645" width="12" height="86" rx="0" fill="#ff2bd6" opacity="0.52"/>
    <rect x="236" y="710" width="12" height="21" rx="0" fill="#9adf6b" opacity="0.62"/>
    <rect x="262" y="693" width="12" height="38" rx="0" fill="#00f0ff" opacity="0.72"/>
    <rect x="288" y="676" width="12" height="55" rx="0" fill="#ff2bd6" opacity="0.8200000000000001"/>
    <rect x="314" y="659" width="12" height="72" rx="0" fill="#9adf6b" opacity="0.52"/>
    <rect x="340" y="642" width="12" height="89" rx="0" fill="#00f0ff" opacity="0.62"/>
    <rect x="366" y="707" width="12" height="24" rx="0" fill="#ff2bd6" opacity="0.72"/>
    <rect x="392" y="690" width="12" height="41" rx="0" fill="#9adf6b" opacity="0.8200000000000001"/>
    <rect x="418" y="673" width="12" height="58" rx="0" fill="#00f0ff" opacity="0.52"/>
    <rect x="444" y="656" width="12" height="75" rx="0" fill="#ff2bd6" opacity="0.62"/>
    <rect x="470" y="639" width="12" height="92" rx="0" fill="#9adf6b" opacity="0.72"/>
    <rect x="496" y="704" width="12" height="27" rx="0" fill="#00f0ff" opacity="0.8200000000000001"/>
    <rect x="522" y="687" width="12" height="44" rx="0" fill="#ff2bd6" opacity="0.52"/>
    <rect x="548" y="670" width="12" height="61" rx="0" fill="#9adf6b" opacity="0.62"/>
    <rect x="574" y="653" width="12" height="78" rx="0" fill="#00f0ff" opacity="0.72"/>
    <rect x="600" y="636" width="12" height="95" rx="0" fill="#ff2bd6" opacity="0.8200000000000001"/>
    <rect x="626" y="701" width="12" height="30" rx="0" fill="#9adf6b" opacity="0.52"/>
    <rect x="652" y="684" width="12" height="47" rx="0" fill="#00f0ff" opacity="0.62"/>
    <rect x="678" y="667" width="12" height="64" rx="0" fill="#ff2bd6" opacity="0.72"/>
    <rect x="704" y="650" width="12" height="81" rx="0" fill="#9adf6b" opacity="0.8200000000000001"/>
    <path d="M100 765 C282 685, 522 809, 779 703 S960 749, 984 719" fill="none" stroke="#00f0ff" stroke-width="4" opacity="0.78"/>
  </g>
  <g font-family="Inter, Arial, sans-serif" fill="#f5f8ff">
    <text x="80" y="168" font-size="48" font-weight="800" letter-spacing="0">AIRDOX</text>
    <text x="80" y="212" font-size="24" font-weight="600" fill="#9aa6b2" letter-spacing="0">Berlin Underground Techno</text>
    <text x="80" y="517" font-size="116" font-weight="900" letter-spacing="0">NEW SET</text>
    <text x="80" y="583" font-size="44" font-weight="700" fill="#00f0ff" letter-spacing="0">AIRDOX SIGNAL DROP</text>
    <text x="80" y="888" font-size="36" font-weight="800" fill="#f5f8ff" letter-spacing="0">LISTEN / SHARE / BOOK</text>
    <text x="80" y="932" font-size="22" font-weight="600" fill="#9aa6b2" letter-spacing="0">https://airdox.info</text>
  </g>
  <g font-family="Inter, Arial, sans-serif" font-size="18" font-weight="700" letter-spacing="0" fill="#9aa6b2" opacity="0.88">
    <text x="80" y="802">MOTION: static-feed signal bars</text>
    <text x="80" y="830">EFFECT: data burn-in + light gate</text>
    <text x="80" y="858">STILL: brand asset or cover still</text>
  </g>
  <g opacity="0.75">
    <rect x="830" y="118" width="170" height="14" fill="#00f0ff"/>
    <rect x="868" y="142" width="132" height="14" fill="#ff2bd6"/>
    <rect x="912" y="166" width="88" height="14" fill="#9adf6b"/>
    <rect x="80" y="958" width="70" height="10" fill="#00f0ff"/>
  </g>
  <text x="852" y="910" transform="rotate(-90 852 910)" font-family="Inter, Arial, sans-serif" font-size="18" font-weight="800" fill="#ffc857" letter-spacing="0">SIGNAL / AIRDOX</text>
  <rect x="80" y="90" width="920" height="890" fill="none" stroke="url(#edgeGlow)" stroke-width="3" opacity="0.72"/>
</svg>
