<svg xmlns="http://www.w3.org/2000/svg" width="1280" height="720" viewBox="0 0 1280 720" role="img" aria-label="AIRDOX AIRDOX LIVE SET">
  <defs>
    <linearGradient id="stageWash" x1="0" x2="1" y1="0" y2="1">
      <stop offset="0" stop-color="#21133f" stop-opacity="0.95"/>
      <stop offset="0.45" stop-color="#0f141a" stop-opacity="0.96"/>
      <stop offset="1" stop-color="#061f25" stop-opacity="0.98"/>
    </linearGradient>
    <linearGradient id="edgeGlow" x1="0" x2="1" y1="0" y2="1">
      <stop offset="0" stop-color="#00f0ff" stop-opacity="0.95"/>
      <stop offset="0.42" stop-color="#ff2bd6" stop-opacity="0.86"/>
      <stop offset="1" stop-color="#9adf6b" stop-opacity="0.82"/>
    </linearGradient>
    <pattern id="signalGrid" width="54" height="54" patternUnits="userSpaceOnUse">
      <path d="M54 0H0V54" fill="none" stroke="#263241" stroke-width="1" opacity="0.55"/>
      <circle cx="0" cy="54" r="2.5" fill="#00f0ff" opacity="0.38"/>
    </pattern>
    <filter id="softGlow" x="-20%" y="-20%" width="140%" height="140%">
      <feGaussianBlur stdDeviation="18" result="blur"/>
      <feMerge>
        <feMergeNode in="blur"/>
        <feMergeNode in="SourceGraphic"/>
      </feMerge>
    </filter>
  </defs>
  <rect width="100%" height="100%" fill="#050608"/>
  <rect width="100%" height="100%" fill="url(#stageWash)" opacity="0.72"/>
  <rect width="100%" height="100%" fill="url(#signalGrid)" opacity="0.34"/>
  <rect x="28" y="28" width="1224" height="664" fill="none" stroke="#263241" stroke-width="2"/>
  <path d="M62 190 L1200 600" stroke="#ff2bd6" stroke-width="34" opacity="0.24" filter="url(#softGlow)"/>
  <path d="M104 262 L1200 600" stroke="#00f0ff" stroke-width="10" opacity="0.68"/>
  <rect x="80" y="96" width="1120" height="520" fill="#0f141a" opacity="0.68"/>
  <rect x="980" y="96" width="220" height="520" fill="#21133f" opacity="0.82"/>
  <path d="M80 112 H573" stroke="#00f0ff" stroke-width="10" filter="url(#softGlow)"/>
  <path d="M282 470 H998" stroke="#ff2bd6" stroke-width="4" opacity="0.86"/>
  <path d="M640 592 H1200" stroke="#9adf6b" stroke-width="8" opacity="0.9"/>
  <g opacity="0.78">
    <rect x="1014" y="246" width="16" height="218" fill="#00f0ff"/>
    <rect x="1042" y="316" width="16" height="156" fill="#ff2bd6"/>
    <rect x="1070" y="206" width="16" height="250" fill="#9adf6b"/>
  </g>
  <g opacity="0.86" aria-label="audio reactive equalizer direction">
    <rect x="106" y="440" width="16" height="18" rx="0" fill="#00f0ff" opacity="0.52"/>
    <rect x="136" y="423" width="16" height="35" rx="0" fill="#ff2bd6" opacity="0.62"/>
    <rect x="166" y="406" width="16" height="52" rx="0" fill="#9adf6b" opacity="0.72"/>
    <rect x="196" y="389" width="16" height="69" rx="0" fill="#00f0ff" opacity="0.8200000000000001"/>
    <rect x="226" y="372" width="16" height="86" rx="0" fill="#ff2bd6" opacity="0.52"/>
    <rect x="256" y="437" width="16" height="21" rx="0" fill="#9adf6b" opacity="0.62"/>
    <rect x="286" y="420" width="16" height="38" rx="0" fill="#00f0ff" opacity="0.72"/>
    <rect x="316" y="403" width="16" height="55" rx="0" fill="#ff2bd6" opacity="0.8200000000000001"/>
    <rect x="346" y="386" width="16" height="72" rx="0" fill="#9adf6b" opacity="0.52"/>
    <rect x="376" y="369" width="16" height="89" rx="0" fill="#00f0ff" opacity="0.62"/>
    <rect x="406" y="434" width="16" height="24" rx="0" fill="#ff2bd6" opacity="0.72"/>
    <rect x="436" y="417" width="16" height="41" rx="0" fill="#9adf6b" opacity="0.8200000000000001"/>
    <rect x="466" y="400" width="16" height="58" rx="0" fill="#00f0ff" opacity="0.52"/>
    <rect x="496" y="383" width="16" height="75" rx="0" fill="#ff2bd6" opacity="0.62"/>
    <rect x="526" y="366" width="16" height="92" rx="0" fill="#9adf6b" opacity="0.72"/>
    <rect x="556" y="431" width="16" height="27" rx="0" fill="#00f0ff" opacity="0.8200000000000001"/>
    <rect x="586" y="414" width="16" height="44" rx="0" fill="#ff2bd6" opacity="0.52"/>
    <rect x="616" y="397" width="16" height="61" rx="0" fill="#9adf6b" opacity="0.62"/>
    <path d="M100 492 C326 412, 618 536, 931 430 S1160 476, 1184 446" fill="none" stroke="#00f0ff" stroke-width="4" opacity="0.78"/>
  </g>
  <g font-family="Inter, Arial, sans-serif" fill="#f5f8ff">
    <text x="80" y="174" font-size="42" font-weight="800" letter-spacing="0">AIRDOX</text>
    <text x="80" y="218" font-size="24" font-weight="600" fill="#9aa6b2" letter-spacing="0">Berlin Underground Techno</text>
    <text x="80" y="346" font-size="94" font-weight="900" letter-spacing="0">AIRDOX LIVE SET</text>
    <text x="80" y="406" font-size="38" font-weight="700" fill="#00f0ff" letter-spacing="0">DARK ROOM ENERGY</text>
    <text x="80" y="524" font-size="31" font-weight="800" fill="#f5f8ff" letter-spacing="0">FULL SET ON AIRDOX.INFO</text>
    <text x="80" y="568" font-size="22" font-weight="600" fill="#9aa6b2" letter-spacing="0">https://airdox.info</text>
  </g>
  <g font-family="Inter, Arial, sans-serif" font-size="18" font-weight="700" letter-spacing="0" fill="#9aa6b2" opacity="0.88">
    <text x="80" y="438">MOTION: first-frame waveform marker</text>
    <text x="80" y="466">EFFECT: posterize pass + edge glow</text>
    <text x="80" y="494">STILL: set preview or website still</text>
  </g>
  <g opacity="0.75">
    <rect x="1030" y="124" width="170" height="14" fill="#00f0ff"/>
    <rect x="1068" y="148" width="132" height="14" fill="#ff2bd6"/>
    <rect x="1112" y="172" width="88" height="14" fill="#9adf6b"/>
    <rect x="80" y="594" width="70" height="10" fill="#00f0ff"/>
  </g>
  <text x="1052" y="546" transform="rotate(-90 1052 546)" font-family="Inter, Arial, sans-serif" font-size="18" font-weight="800" fill="#ffc857" letter-spacing="0">SIGNAL / AIRDOX</text>
  <rect x="80" y="96" width="1120" height="520" fill="none" stroke="url(#edgeGlow)" stroke-width="3" opacity="0.72"/>
</svg>
