<svg xmlns="http://www.w3.org/2000/svg" width="1080" height="1920" viewBox="0 0 1080 1920" role="img" aria-labelledby="title desc">
  <title id="title">AIRDOX Daumenkino Reel War Preview</title>
  <desc id="desc">9:16 AIRDOX Reel War preview using Daumenkino Vorlage 1 as a transformed reference with website CTA www.airdox.info.</desc>
  <defs>
    <filter id="cyanGlow" x="-20%" y="-20%" width="140%" height="140%">
      <feGaussianBlur stdDeviation="7" result="blur"/>
      <feColorMatrix in="blur" type="matrix" values="0 0 0 0 0 0 0 0 0 0.96 0 0 0 0 1 0 0 0 0.9 0"/>
      <feMerge>
        <feMergeNode/>
        <feMergeNode in="SourceGraphic"/>
      </feMerge>
    </filter>
    <pattern id="scanlines" width="1" height="8" patternUnits="userSpaceOnUse">
      <rect width="1" height="1" fill="#00f5ff" opacity="0.14"/>
      <rect y="4" width="1" height="1" fill="#ffffff" opacity="0.05"/>
    </pattern>
    <clipPath id="safe">
      <rect x="72" y="88" width="936" height="1660" rx="0"/>
    </clipPath>
  </defs>

  <rect width="1080" height="1920" fill="#050608"/>
  <rect width="1080" height="1920" fill="url(#scanlines)" opacity="0.9"/>
  <rect x="72" y="88" width="936" height="1660" fill="none" stroke="#263241" stroke-width="2"/>
  <rect x="72" y="88" width="262" height="46" fill="#00f5ff"/>
  <text x="100" y="120" font-family="Arial Black, Arial, sans-serif" font-size="24" font-weight="900" fill="#050608">AIRDOX</text>
  <text x="1008" y="122" text-anchor="end" font-family="Consolas, monospace" font-size="20" fill="#9aa6b2">DAUMENKINO / REEL WAR</text>

  <g clip-path="url(#safe)">
    <rect x="120" y="260" width="840" height="34" fill="#ff00aa" opacity="0.8"/>
    <rect x="180" y="310" width="640" height="16" fill="#9adf6b" opacity="0.7"/>
    <g transform="translate(540 840) skewX(-8)" filter="url(#cyanGlow)">
      <text x="12" y="20" text-anchor="middle" font-family="Arial Black, Impact, Arial, sans-serif" font-size="178" font-weight="900" fill="#00f5ff" opacity="0.42">AIRDOX</text>
      <text x="-10" y="0" text-anchor="middle" font-family="Arial Black, Impact, Arial, sans-serif" font-size="178" font-weight="900" fill="#ffffff">AIRDOX</text>
      <text x="-12" y="6" text-anchor="middle" font-family="Arial Black, Impact, Arial, sans-serif" font-size="178" font-weight="900" fill="none" stroke="#050608" stroke-width="8" opacity="0.65">AIRDOX</text>
      <path d="M-428 36 L-330 8 L-352 48 L-214 28 L-240 76 L-82 42 L-112 92 L42 56 L18 102 L184 66 L154 116 L316 74 L294 126 L430 94" fill="none" stroke="#050608" stroke-width="12" stroke-linecap="square" opacity="0.78"/>
      <path d="M-416 -126 L-300 -148 L-324 -108 L-190 -142 L-210 -96 L-68 -132 L-90 -84 L62 -118 L44 -70 L194 -104 L176 -58 L330 -92 L314 -44" fill="none" stroke="#ff00aa" stroke-width="8" stroke-linecap="square" opacity="0.74"/>
      <path d="M-460 -28 L-390 -52 L-408 -16 L-264 -44 L-286 -2 L-144 -30 L-164 12 L-22 -18 L-44 24 L98 -4 L78 38 L224 10 L202 52 L360 24 L338 66" fill="none" stroke="#9adf6b" stroke-width="7" stroke-linecap="square" opacity="0.7"/>
    </g>
    <rect x="76" y="736" width="928" height="74" fill="#050608" opacity="0.78"/>
    <rect x="154" y="812" width="726" height="22" fill="#00f5ff" opacity="0.7"/>
    <rect x="230" y="860" width="530" height="20" fill="#ff00aa" opacity="0.55"/>
    <rect x="112" y="966" width="856" height="7" fill="#ffffff" opacity="0.45"/>
    <rect x="146" y="992" width="760" height="7" fill="#00f5ff" opacity="0.55"/>
  </g>

  <text x="88" y="400" font-family="Arial Black, Arial, sans-serif" font-size="102" font-weight="900" fill="#ffffff">REEL</text>
  <text x="88" y="502" font-family="Arial Black, Arial, sans-serif" font-size="102" font-weight="900" fill="#ff00aa">WAR</text>
  <text x="94" y="566" font-family="Arial Black, Arial, sans-serif" font-size="34" fill="#9adf6b">NO WARM-UP / DROP SIGNAL</text>

  <g transform="translate(134 1428)">
    <rect x="0" y="0" width="812" height="96" fill="#0f141a" stroke="#263241" stroke-width="2"/>
    <text x="28" y="38" font-family="Arial Black, Arial, sans-serif" font-size="30" fill="#ffffff">FULL SET:</text>
    <text x="28" y="78" font-family="Arial Black, Arial, sans-serif" font-size="36" fill="#00f5ff">www.airdox.info</text>
  </g>

  <g transform="translate(284 1644)">
    <rect x="0" y="0" width="512" height="52" fill="#263241" opacity="0.55"/>
    <rect x="14" y="33" width="14" height="13" fill="#00f5ff"/>
    <rect x="38" y="24" width="14" height="22" fill="#ff00aa"/>
    <rect x="62" y="12" width="14" height="34" fill="#9adf6b"/>
    <rect x="86" y="28" width="14" height="18" fill="#00f5ff"/>
    <rect x="110" y="16" width="14" height="30" fill="#ff00aa"/>
    <rect x="134" y="6" width="14" height="40" fill="#9adf6b"/>
    <rect x="158" y="20" width="14" height="26" fill="#00f5ff"/>
    <rect x="182" y="12" width="14" height="34" fill="#ff00aa"/>
    <rect x="206" y="30" width="14" height="16" fill="#9adf6b"/>
    <rect x="230" y="18" width="14" height="28" fill="#00f5ff"/>
    <rect x="254" y="8" width="14" height="38" fill="#ff00aa"/>
    <rect x="278" y="22" width="14" height="24" fill="#9adf6b"/>
    <rect x="302" y="14" width="14" height="32" fill="#00f5ff"/>
    <rect x="326" y="26" width="14" height="20" fill="#ff00aa"/>
    <rect x="350" y="10" width="14" height="36" fill="#9adf6b"/>
    <rect x="374" y="18" width="14" height="28" fill="#00f5ff"/>
    <rect x="398" y="28" width="14" height="18" fill="#ff00aa"/>
    <rect x="422" y="6" width="14" height="40" fill="#9adf6b"/>
    <rect x="446" y="20" width="14" height="26" fill="#00f5ff"/>
    <rect x="470" y="12" width="14" height="34" fill="#ff00aa"/>
  </g>

  <text x="72" y="1816" font-family="Consolas, monospace" font-size="22" fill="#9aa6b2">Source transformed from Daumenkino Vorlage 1. Not a 1:1 rebuild.</text>
</svg>
